<svg xmlns="http://www.w3.org/2000/svg" viewBox="0 0 640 480" role="img" aria-label="Empanada de pollo">
  <rect width="640" height="480" fill="#fff7e9"/>
  <path d="M145 315c34-120 128-178 275-148 76 15 126 62 154 148H145z" fill="#df8d37"/>
  <path d="M182 290c42-75 123-111 237-88 52 11 89 39 116 88H182z" fill="#f3bd6e"/>
  <path d="M180 320h368" stroke="#9d5226" stroke-width="18" stroke-linecap="round"/>
  <path d="M210 310c8-20 22-31 42-35M272 304c9-22 26-34 50-38M346 302c11-24 30-36 58-34M430 304c14-22 34-31 60-26" fill="none" stroke="#fff0bf" stroke-width="13" stroke-linecap="round"/>
  <ellipse cx="320" cy="352" rx="235" ry="25" fill="#5b321f" opacity=".12"/>
</svg>
